<svg xmlns="http://www.w3.org/2000/svg" shape-rendering="geometricPrecision" text-rendering="geometricPrecision" image-rendering="optimizeQuality" fill-rule="evenodd" clip-rule="evenodd" viewBox="0 0 512 500.458"><path d="M187.095 304.534c-7.873-8.107-17.767-21.504-19.131-36.46l-1.513.029c-3.485-.047-6.854-.847-10.006-2.645-5.042-2.873-8.592-7.795-10.989-13.352-5.073-11.655-9.096-42.333 3.675-51.102l-2.391-1.59-.269-3.395c-.492-6.174-.617-13.644-.743-21.486-.46-28.843-1.045-63.782-24.233-70.789l-9.95-3.009 6.55-8.111c18.744-23.145 38.319-43.397 58.061-58.941 22.335-17.581 45.033-29.285 67.245-32.67 22.832-3.461 44.958 1.782 65.393 18.299 6.03 4.878 11.888 10.733 17.536 17.599 21.805 2.112 39.623 13.853 52.355 30.608 7.596 10.008 13.359 21.838 17.034 34.411 3.662 12.53 5.256 25.861 4.579 38.987-1.236 23.512-9.833 46.474-27.162 63.218 3.047.112 5.923.813 8.461 2.17 9.665 5.178 9.979 16.404 7.436 25.829-2.509 7.873-5.701 17.008-8.715 24.677-3.651 10.364-9.002 12.296-19.337 11.18-.337 16.435-11.73 30.04-21.566 39.16-3.704 3.434-7.954 6.495-12.617 9.188C363.564 396.773 512 324.404 512 493.877c0 3.625-2.959 6.581-6.592 6.581H6.592c-3.636 0-6.592-2.956-6.592-6.581 0-179.418 172.327-76.379 201.907-177.944-5.601-3.267-10.607-7.068-14.812-11.399z"/></svg>